<svg width="52" height="52" viewBox="0 0 52 52" fill="none" xmlns="http://www.w3.org/2000/svg">
<path d="M42.0584 33.8928C41.4659 35.2554 40.7646 36.5096 39.952 37.6627C38.8445 39.2347 37.9376 40.3228 37.2387 40.9271C36.1553 41.9189 34.9945 42.4268 33.7515 42.4557C32.8592 42.4557 31.783 42.203 30.5304 41.6902C29.2736 41.1798 28.1186 40.9271 27.0625 40.9271C25.955 40.9271 24.7671 41.1798 23.4965 41.6902C22.224 42.203 21.1989 42.4702 20.4151 42.4967C19.2232 42.5472 18.0351 42.0248 16.8491 40.9271C16.0922 40.2699 15.1454 39.1432 14.0113 37.5472C12.7944 35.8428 11.7939 33.8664 11.0102 31.6131C10.1708 29.1793 9.75 26.8225 9.75 24.5408C9.75 21.9272 10.3173 19.673 11.4537 17.7839C12.3468 16.2666 13.5349 15.0697 15.0219 14.191C16.5089 13.3123 18.1156 12.8645 19.8459 12.8359C20.7926 12.8359 22.0342 13.1274 23.5771 13.7004C25.1156 14.2752 26.1035 14.5668 26.5366 14.5668C26.8604 14.5668 27.9578 14.2259 29.8182 13.5463C31.5775 12.9161 33.0623 12.6551 34.2787 12.7579C37.5749 13.0227 40.0512 14.3162 41.698 16.6465C38.7501 18.4245 37.2919 20.9149 37.3209 24.1097C37.3475 26.5981 38.2544 28.6689 40.0367 30.3131C40.8444 31.0763 41.7464 31.6661 42.75 32.0849C42.5324 32.7132 42.3026 33.3151 42.0584 33.8928ZM34.4988 4.28022C34.4988 6.23067 33.783 8.05179 32.3562 9.73741C30.6344 11.7413 28.5517 12.8992 26.2933 12.7165C26.2645 12.4825 26.2478 12.2362 26.2478 11.9774C26.2478 10.105 27.0667 8.10114 28.5208 6.46271C29.2467 5.63314 30.17 4.94337 31.2897 4.39312C32.407 3.85109 33.4638 3.55133 34.4577 3.5C34.4867 3.76074 34.4988 4.02153 34.4988 4.28022Z" fill="#333333"/>
</svg>
