<svg width="24" height="24" viewBox="0 0 24 24" fill="none" xmlns="http://www.w3.org/2000/svg">
<path d="M15 21.88C15.04 22.18 14.94 22.5 14.71 22.71C14.6175 22.8027 14.5076 22.8762 14.3866 22.9264C14.2657 22.9766 14.136 23.0024 14.005 23.0024C13.874 23.0024 13.7444 22.9766 13.6234 22.9264C13.5024 22.8762 13.3925 22.8027 13.3 22.71L9.29001 18.7C9.18094 18.5934 9.09802 18.463 9.04771 18.319C8.9974 18.175 8.98107 18.0213 9.00001 17.87V12.75L4.21001 6.62C4.04762 6.41153 3.97434 6.14726 4.0062 5.88493C4.03805 5.6226 4.17244 5.38355 4.38001 5.22C4.57001 5.08 4.78001 5 5.00001 5H19C19.22 5 19.43 5.08 19.62 5.22C19.8276 5.38355 19.962 5.6226 19.9938 5.88493C20.0257 6.14726 19.9524 6.41153 19.79 6.62L15 12.75V21.88ZM7.04001 7L11 12.06V17.58L13 19.58V12.05L16.96 7H7.04001Z" fill="black"/>
</svg>
