<svg width="52" height="52" viewBox="0 0 52 52" fill="none" xmlns="http://www.w3.org/2000/svg">
<path d="M6.5 26.1172C6.5011 30.7894 8.15842 35.308 11.1741 38.8608C14.1897 42.4137 18.366 44.7678 22.9522 45.5V31.7874H18.005V26.1172H22.958V21.8007C22.8486 20.7904 22.9617 19.7683 23.2892 18.807C23.6166 17.8456 24.1504 16.9686 24.8527 16.2382C25.555 15.5078 26.4085 14.942 27.3526 14.5809C28.2967 14.2198 29.3082 14.0722 30.3154 14.1488C31.7779 14.1723 33.2404 14.3038 34.6834 14.5412V19.3658H32.2186C31.7996 19.3106 31.3737 19.3508 30.9723 19.4835C30.571 19.6162 30.2043 19.8379 29.8996 20.1323C29.5948 20.4267 29.3597 20.7863 29.2116 21.1844C29.0635 21.5825 29.0062 22.0091 29.044 22.4325V26.1172H34.4474L33.5836 31.7894H29.044V45.5C32.7248 44.9147 36.1619 43.2804 38.9483 40.7907C41.7347 38.3009 43.7537 35.06 44.7663 31.4515C45.7789 27.8431 45.7427 24.0183 44.6619 20.4299C43.5811 16.8415 41.501 13.6399 38.6679 11.2041C35.8348 8.76825 32.3674 7.20022 28.6761 6.68565C24.9848 6.17108 21.2243 6.73151 17.8397 8.30059C14.4552 9.86967 11.5884 12.3817 9.57867 15.5392C7.56898 18.6968 6.50059 22.3676 6.5 26.1172Z" fill="#3C5A9A"/>
</svg>
