<svg width="52" height="52" viewBox="0 0 52 52" fill="none" xmlns="http://www.w3.org/2000/svg">
<path d="M45.5001 26.4339C45.5001 24.8306 45.3674 23.6606 45.0801 22.4473H26.3981V29.6838H37.364C37.143 31.4822 35.9491 34.1905 33.296 36.0104L33.2588 36.2527L39.1657 40.7372L39.5749 40.7772C43.3334 37.3755 45.5001 32.3705 45.5001 26.4339Z" fill="#4285F4"/>
<path d="M26.3967 45.5008C31.7691 45.5008 36.2792 43.7673 39.5735 40.7774L33.2946 36.0106C31.6144 37.159 29.3592 37.9607 26.3967 37.9607C21.1348 37.9607 16.6688 34.5591 15.0768 29.8574L14.8435 29.8768L8.70142 34.5352L8.62109 34.754C11.8932 41.124 18.6143 45.5008 26.3967 45.5008Z" fill="#34A853"/>
<path d="M15.0783 29.8573C14.6582 28.644 14.4151 27.3439 14.4151 26.0006C14.4151 24.6572 14.6582 23.3572 15.0562 22.1439L15.0451 21.8855L8.826 17.1523L8.62252 17.2472C7.27394 19.8906 6.50012 22.8589 6.50012 26.0006C6.50012 29.1423 7.27394 32.1105 8.62252 34.7539L15.0783 29.8573Z" fill="#FBBC05"/>
<path d="M26.3967 14.0399C30.133 14.0399 32.6534 15.6216 34.0905 16.9434L39.7062 11.57C36.2573 8.42834 31.7691 6.5 26.3967 6.5C18.6143 6.5 11.8932 10.8766 8.62109 17.2466L15.0548 22.1433C16.6689 17.4416 21.1348 14.0399 26.3967 14.0399Z" fill="#EB4335"/>
</svg>
