<svg width="83" height="67" viewBox="0 0 83 67" fill="none" xmlns="http://www.w3.org/2000/svg">
<mask id="path-1-outside-1_402_2309" maskUnits="userSpaceOnUse" x="0" y="0" width="83" height="67" fill="black">
<rect fill="white" width="83" height="67"/>
<path d="M24.834 2V30.459H18.3652V11.2461L15.7812 30.459H11.1934L8.46875 11.6855V30.459H2V2H11.5801C11.8613 3.71094 12.1602 5.72656 12.4766 8.04688L13.4961 15.2891L15.1836 2H24.834Z"/>
<path d="M27.8047 2H40.1445V7.69531H35.2051V13.0918H39.8281V18.5059H35.2051V24.7637H40.6367V30.459H27.8047V2Z"/>
<path d="M65.6152 2V30.459H59.1465V11.2461L56.5625 30.459H51.9746L49.25 11.6855V30.459H42.7812V2H52.3613C52.6426 3.71094 52.9414 5.72656 53.2578 8.04688L54.2773 15.2891L55.9648 2H65.6152Z"/>
<path d="M68.5859 2H80.9258V7.69531H75.9863V13.0918H80.6094V18.5059H75.9863V24.7637H81.418V30.459H68.5859V2Z"/>
<path d="M19.7539 36V41.6953H15.3594V64.459H7.95898V41.6953H3.58203V36H19.7539Z"/>
<path d="M38.3516 52.6641C38.3516 55.5234 38.2812 57.5508 38.1406 58.7461C38.0117 59.9297 37.5898 61.0137 36.875 61.998C36.1719 62.9824 35.2168 63.7383 34.0098 64.2656C32.8027 64.793 31.3965 65.0566 29.791 65.0566C28.2676 65.0566 26.8965 64.8105 25.6777 64.3184C24.4707 63.8145 23.498 63.0645 22.7598 62.0684C22.0215 61.0723 21.582 59.9883 21.4414 58.8164C21.3008 57.6445 21.2305 55.5938 21.2305 52.6641V47.7949C21.2305 44.9355 21.2949 42.9141 21.4238 41.7305C21.5645 40.5352 21.9863 39.4453 22.6895 38.4609C23.4043 37.4766 24.3652 36.7207 25.5723 36.1934C26.7793 35.666 28.1855 35.4023 29.791 35.4023C31.3145 35.4023 32.6797 35.6543 33.8867 36.1582C35.1055 36.6504 36.084 37.3945 36.8223 38.3906C37.5605 39.3867 38 40.4707 38.1406 41.6426C38.2812 42.8145 38.3516 44.8652 38.3516 47.7949V52.6641ZM30.9512 43.3125C30.9512 41.9883 30.875 41.1445 30.7227 40.7812C30.582 40.4062 30.2832 40.2188 29.8262 40.2188C29.4395 40.2188 29.1406 40.3711 28.9297 40.6758C28.7305 40.9688 28.6309 41.8477 28.6309 43.3125V56.6016C28.6309 58.2539 28.6953 59.2734 28.8242 59.6602C28.9648 60.0469 29.2812 60.2402 29.7734 60.2402C30.2773 60.2402 30.5996 60.0176 30.7402 59.5723C30.8809 59.127 30.9512 58.0664 30.9512 56.3906V43.3125Z"/>
<path d="M41.1289 36H46.666C50.2402 36 52.6543 36.1641 53.9082 36.4922C55.1738 36.8203 56.1348 37.3594 56.791 38.1094C57.4473 38.8594 57.8574 39.6973 58.0215 40.623C58.1855 41.5371 58.2676 43.3418 58.2676 46.0371V56.0039C58.2676 58.5586 58.1445 60.2695 57.8984 61.1367C57.6641 61.9922 57.248 62.666 56.6504 63.1582C56.0527 63.6387 55.3145 63.9785 54.4355 64.1777C53.5566 64.3652 52.2324 64.459 50.4629 64.459H41.1289V36ZM48.5293 40.8691V59.5898C49.5957 59.5898 50.252 59.3789 50.498 58.957C50.7441 58.5234 50.8672 57.3574 50.8672 55.459V44.4023C50.8672 43.1133 50.8262 42.2871 50.7441 41.9238C50.6621 41.5605 50.4746 41.2969 50.1816 41.1328C49.8887 40.957 49.3379 40.8691 48.5293 40.8691Z"/>
<path d="M77.9375 52.6641C77.9375 55.5234 77.8672 57.5508 77.7266 58.7461C77.5977 59.9297 77.1758 61.0137 76.4609 61.998C75.7578 62.9824 74.8027 63.7383 73.5957 64.2656C72.3887 64.793 70.9824 65.0566 69.377 65.0566C67.8535 65.0566 66.4824 64.8105 65.2637 64.3184C64.0566 63.8145 63.084 63.0645 62.3457 62.0684C61.6074 61.0723 61.168 59.9883 61.0273 58.8164C60.8867 57.6445 60.8164 55.5938 60.8164 52.6641V47.7949C60.8164 44.9355 60.8809 42.9141 61.0098 41.7305C61.1504 40.5352 61.5723 39.4453 62.2754 38.4609C62.9902 37.4766 63.9512 36.7207 65.1582 36.1934C66.3652 35.666 67.7715 35.4023 69.377 35.4023C70.9004 35.4023 72.2656 35.6543 73.4727 36.1582C74.6914 36.6504 75.6699 37.3945 76.4082 38.3906C77.1465 39.3867 77.5859 40.4707 77.7266 41.6426C77.8672 42.8145 77.9375 44.8652 77.9375 47.7949V52.6641ZM70.5371 43.3125C70.5371 41.9883 70.4609 41.1445 70.3086 40.7812C70.168 40.4062 69.8691 40.2188 69.4121 40.2188C69.0254 40.2188 68.7266 40.3711 68.5156 40.6758C68.3164 40.9688 68.2168 41.8477 68.2168 43.3125V56.6016C68.2168 58.2539 68.2812 59.2734 68.4102 59.6602C68.5508 60.0469 68.8672 60.2402 69.3594 60.2402C69.8633 60.2402 70.1855 60.0176 70.3262 59.5723C70.4668 59.127 70.5371 58.0664 70.5371 56.3906V43.3125Z"/>
</mask>
<path d="M24.834 2V30.459H18.3652V11.2461L15.7812 30.459H11.1934L8.46875 11.6855V30.459H2V2H11.5801C11.8613 3.71094 12.1602 5.72656 12.4766 8.04688L13.4961 15.2891L15.1836 2H24.834Z" fill="white"/>
<path d="M27.8047 2H40.1445V7.69531H35.2051V13.0918H39.8281V18.5059H35.2051V24.7637H40.6367V30.459H27.8047V2Z" fill="white"/>
<path d="M65.6152 2V30.459H59.1465V11.2461L56.5625 30.459H51.9746L49.25 11.6855V30.459H42.7812V2H52.3613C52.6426 3.71094 52.9414 5.72656 53.2578 8.04688L54.2773 15.2891L55.9648 2H65.6152Z" fill="white"/>
<path d="M68.5859 2H80.9258V7.69531H75.9863V13.0918H80.6094V18.5059H75.9863V24.7637H81.418V30.459H68.5859V2Z" fill="white"/>
<path d="M19.7539 36V41.6953H15.3594V64.459H7.95898V41.6953H3.58203V36H19.7539Z" fill="white"/>
<path d="M38.3516 52.6641C38.3516 55.5234 38.2812 57.5508 38.1406 58.7461C38.0117 59.9297 37.5898 61.0137 36.875 61.998C36.1719 62.9824 35.2168 63.7383 34.0098 64.2656C32.8027 64.793 31.3965 65.0566 29.791 65.0566C28.2676 65.0566 26.8965 64.8105 25.6777 64.3184C24.4707 63.8145 23.498 63.0645 22.7598 62.0684C22.0215 61.0723 21.582 59.9883 21.4414 58.8164C21.3008 57.6445 21.2305 55.5938 21.2305 52.6641V47.7949C21.2305 44.9355 21.2949 42.9141 21.4238 41.7305C21.5645 40.5352 21.9863 39.4453 22.6895 38.4609C23.4043 37.4766 24.3652 36.7207 25.5723 36.1934C26.7793 35.666 28.1855 35.4023 29.791 35.4023C31.3145 35.4023 32.6797 35.6543 33.8867 36.1582C35.1055 36.6504 36.084 37.3945 36.8223 38.3906C37.5605 39.3867 38 40.4707 38.1406 41.6426C38.2812 42.8145 38.3516 44.8652 38.3516 47.7949V52.6641ZM30.9512 43.3125C30.9512 41.9883 30.875 41.1445 30.7227 40.7812C30.582 40.4062 30.2832 40.2188 29.8262 40.2188C29.4395 40.2188 29.1406 40.3711 28.9297 40.6758C28.7305 40.9688 28.6309 41.8477 28.6309 43.3125V56.6016C28.6309 58.2539 28.6953 59.2734 28.8242 59.6602C28.9648 60.0469 29.2812 60.2402 29.7734 60.2402C30.2773 60.2402 30.5996 60.0176 30.7402 59.5723C30.8809 59.127 30.9512 58.0664 30.9512 56.3906V43.3125Z" fill="white"/>
<path d="M41.1289 36H46.666C50.2402 36 52.6543 36.1641 53.9082 36.4922C55.1738 36.8203 56.1348 37.3594 56.791 38.1094C57.4473 38.8594 57.8574 39.6973 58.0215 40.623C58.1855 41.5371 58.2676 43.3418 58.2676 46.0371V56.0039C58.2676 58.5586 58.1445 60.2695 57.8984 61.1367C57.6641 61.9922 57.248 62.666 56.6504 63.1582C56.0527 63.6387 55.3145 63.9785 54.4355 64.1777C53.5566 64.3652 52.2324 64.459 50.4629 64.459H41.1289V36ZM48.5293 40.8691V59.5898C49.5957 59.5898 50.252 59.3789 50.498 58.957C50.7441 58.5234 50.8672 57.3574 50.8672 55.459V44.4023C50.8672 43.1133 50.8262 42.2871 50.7441 41.9238C50.6621 41.5605 50.4746 41.2969 50.1816 41.1328C49.8887 40.957 49.3379 40.8691 48.5293 40.8691Z" fill="white"/>
<path d="M77.9375 52.6641C77.9375 55.5234 77.8672 57.5508 77.7266 58.7461C77.5977 59.9297 77.1758 61.0137 76.4609 61.998C75.7578 62.9824 74.8027 63.7383 73.5957 64.2656C72.3887 64.793 70.9824 65.0566 69.377 65.0566C67.8535 65.0566 66.4824 64.8105 65.2637 64.3184C64.0566 63.8145 63.084 63.0645 62.3457 62.0684C61.6074 61.0723 61.168 59.9883 61.0273 58.8164C60.8867 57.6445 60.8164 55.5938 60.8164 52.6641V47.7949C60.8164 44.9355 60.8809 42.9141 61.0098 41.7305C61.1504 40.5352 61.5723 39.4453 62.2754 38.4609C62.9902 37.4766 63.9512 36.7207 65.1582 36.1934C66.3652 35.666 67.7715 35.4023 69.377 35.4023C70.9004 35.4023 72.2656 35.6543 73.4727 36.1582C74.6914 36.6504 75.6699 37.3945 76.4082 38.3906C77.1465 39.3867 77.5859 40.4707 77.7266 41.6426C77.8672 42.8145 77.9375 44.8652 77.9375 47.7949V52.6641ZM70.5371 43.3125C70.5371 41.9883 70.4609 41.1445 70.3086 40.7812C70.168 40.4062 69.8691 40.2188 69.4121 40.2188C69.0254 40.2188 68.7266 40.3711 68.5156 40.6758C68.3164 40.9688 68.2168 41.8477 68.2168 43.3125V56.6016C68.2168 58.2539 68.2812 59.2734 68.4102 59.6602C68.5508 60.0469 68.8672 60.2402 69.3594 60.2402C69.8633 60.2402 70.1855 60.0176 70.3262 59.5723C70.4668 59.127 70.5371 58.0664 70.5371 56.3906V43.3125Z" fill="white"/>
<path d="M24.834 2V30.459H18.3652V11.2461L15.7812 30.459H11.1934L8.46875 11.6855V30.459H2V2H11.5801C11.8613 3.71094 12.1602 5.72656 12.4766 8.04688L13.4961 15.2891L15.1836 2H24.834Z" stroke="black" stroke-width="2.6" mask="url(#path-1-outside-1_402_2309)"/>
<path d="M27.8047 2H40.1445V7.69531H35.2051V13.0918H39.8281V18.5059H35.2051V24.7637H40.6367V30.459H27.8047V2Z" stroke="black" stroke-width="2.6" mask="url(#path-1-outside-1_402_2309)"/>
<path d="M65.6152 2V30.459H59.1465V11.2461L56.5625 30.459H51.9746L49.25 11.6855V30.459H42.7812V2H52.3613C52.6426 3.71094 52.9414 5.72656 53.2578 8.04688L54.2773 15.2891L55.9648 2H65.6152Z" stroke="black" stroke-width="2.6" mask="url(#path-1-outside-1_402_2309)"/>
<path d="M68.5859 2H80.9258V7.69531H75.9863V13.0918H80.6094V18.5059H75.9863V24.7637H81.418V30.459H68.5859V2Z" stroke="black" stroke-width="2.6" mask="url(#path-1-outside-1_402_2309)"/>
<path d="M19.7539 36V41.6953H15.3594V64.459H7.95898V41.6953H3.58203V36H19.7539Z" stroke="black" stroke-width="2.6" mask="url(#path-1-outside-1_402_2309)"/>
<path d="M38.3516 52.6641C38.3516 55.5234 38.2812 57.5508 38.1406 58.7461C38.0117 59.9297 37.5898 61.0137 36.875 61.998C36.1719 62.9824 35.2168 63.7383 34.0098 64.2656C32.8027 64.793 31.3965 65.0566 29.791 65.0566C28.2676 65.0566 26.8965 64.8105 25.6777 64.3184C24.4707 63.8145 23.498 63.0645 22.7598 62.0684C22.0215 61.0723 21.582 59.9883 21.4414 58.8164C21.3008 57.6445 21.2305 55.5938 21.2305 52.6641V47.7949C21.2305 44.9355 21.2949 42.9141 21.4238 41.7305C21.5645 40.5352 21.9863 39.4453 22.6895 38.4609C23.4043 37.4766 24.3652 36.7207 25.5723 36.1934C26.7793 35.666 28.1855 35.4023 29.791 35.4023C31.3145 35.4023 32.6797 35.6543 33.8867 36.1582C35.1055 36.6504 36.084 37.3945 36.8223 38.3906C37.5605 39.3867 38 40.4707 38.1406 41.6426C38.2812 42.8145 38.3516 44.8652 38.3516 47.7949V52.6641ZM30.9512 43.3125C30.9512 41.9883 30.875 41.1445 30.7227 40.7812C30.582 40.4062 30.2832 40.2188 29.8262 40.2188C29.4395 40.2188 29.1406 40.3711 28.9297 40.6758C28.7305 40.9688 28.6309 41.8477 28.6309 43.3125V56.6016C28.6309 58.2539 28.6953 59.2734 28.8242 59.6602C28.9648 60.0469 29.2812 60.2402 29.7734 60.2402C30.2773 60.2402 30.5996 60.0176 30.7402 59.5723C30.8809 59.127 30.9512 58.0664 30.9512 56.3906V43.3125Z" stroke="black" stroke-width="2.6" mask="url(#path-1-outside-1_402_2309)"/>
<path d="M41.1289 36H46.666C50.2402 36 52.6543 36.1641 53.9082 36.4922C55.1738 36.8203 56.1348 37.3594 56.791 38.1094C57.4473 38.8594 57.8574 39.6973 58.0215 40.623C58.1855 41.5371 58.2676 43.3418 58.2676 46.0371V56.0039C58.2676 58.5586 58.1445 60.2695 57.8984 61.1367C57.6641 61.9922 57.248 62.666 56.6504 63.1582C56.0527 63.6387 55.3145 63.9785 54.4355 64.1777C53.5566 64.3652 52.2324 64.459 50.4629 64.459H41.1289V36ZM48.5293 40.8691V59.5898C49.5957 59.5898 50.252 59.3789 50.498 58.957C50.7441 58.5234 50.8672 57.3574 50.8672 55.459V44.4023C50.8672 43.1133 50.8262 42.2871 50.7441 41.9238C50.6621 41.5605 50.4746 41.2969 50.1816 41.1328C49.8887 40.957 49.3379 40.8691 48.5293 40.8691Z" stroke="black" stroke-width="2.6" mask="url(#path-1-outside-1_402_2309)"/>
<path d="M77.9375 52.6641C77.9375 55.5234 77.8672 57.5508 77.7266 58.7461C77.5977 59.9297 77.1758 61.0137 76.4609 61.998C75.7578 62.9824 74.8027 63.7383 73.5957 64.2656C72.3887 64.793 70.9824 65.0566 69.377 65.0566C67.8535 65.0566 66.4824 64.8105 65.2637 64.3184C64.0566 63.8145 63.084 63.0645 62.3457 62.0684C61.6074 61.0723 61.168 59.9883 61.0273 58.8164C60.8867 57.6445 60.8164 55.5938 60.8164 52.6641V47.7949C60.8164 44.9355 60.8809 42.9141 61.0098 41.7305C61.1504 40.5352 61.5723 39.4453 62.2754 38.4609C62.9902 37.4766 63.9512 36.7207 65.1582 36.1934C66.3652 35.666 67.7715 35.4023 69.377 35.4023C70.9004 35.4023 72.2656 35.6543 73.4727 36.1582C74.6914 36.6504 75.6699 37.3945 76.4082 38.3906C77.1465 39.3867 77.5859 40.4707 77.7266 41.6426C77.8672 42.8145 77.9375 44.8652 77.9375 47.7949V52.6641ZM70.5371 43.3125C70.5371 41.9883 70.4609 41.1445 70.3086 40.7812C70.168 40.4062 69.8691 40.2188 69.4121 40.2188C69.0254 40.2188 68.7266 40.3711 68.5156 40.6758C68.3164 40.9688 68.2168 41.8477 68.2168 43.3125V56.6016C68.2168 58.2539 68.2812 59.2734 68.4102 59.6602C68.5508 60.0469 68.8672 60.2402 69.3594 60.2402C69.8633 60.2402 70.1855 60.0176 70.3262 59.5723C70.4668 59.127 70.5371 58.0664 70.5371 56.3906V43.3125Z" stroke="black" stroke-width="2.6" mask="url(#path-1-outside-1_402_2309)"/>
</svg>
