<svg width="61" height="57" viewBox="0 0 61 57" fill="none" xmlns="http://www.w3.org/2000/svg">
<g clip-path="url(#clip0_403_921)">
<g opacity="0.62019" filter="url(#filter0_f_403_921)">
<path d="M32.5585 43.7185C26.5624 46.2877 20.3567 47.6196 15.3065 47.4213C10.2564 47.223 6.77542 45.5107 5.62946 42.6612C4.48351 39.8116 5.76642 36.0582 9.19596 32.2265C12.6255 28.3949 17.9207 24.799 23.9168 22.2299C29.9129 19.6608 36.1186 18.3289 41.1688 18.5272C46.2189 18.7255 49.6999 20.4377 50.8458 23.2873C51.9918 26.1369 50.7089 29.8903 47.2793 33.7219C43.8498 37.5535 38.5545 41.1494 32.5585 43.7185Z" fill="url(#paint0_radial_403_921)"/>
</g>
<path d="M56.6535 20.8847C56.6623 22.7461 56.303 24.591 55.5963 26.3133C54.8895 28.0356 53.8491 29.6015 52.535 30.9209C51.2208 32.2402 49.6588 33.2872 47.9386 34.0016C46.2183 34.716 44.3738 35.0838 42.5109 35.0838C40.648 35.0838 38.8034 34.716 37.0832 34.0016C35.363 33.2872 33.8009 32.2402 32.4868 30.9209C31.1726 29.6015 30.1323 28.0356 29.4255 26.3133C28.7187 24.591 28.3594 22.7461 28.3682 20.8847C28.3594 19.0232 28.7187 17.1783 29.4255 15.456C30.1323 13.7337 31.1726 12.1678 32.4868 10.8485C33.8009 9.52907 35.363 8.48211 37.0832 7.76771C38.8034 7.05331 40.648 6.68555 42.5109 6.68555C44.3738 6.68555 46.2183 7.05331 47.9386 7.76771C49.6588 8.48211 51.2208 9.52907 52.535 10.8485C53.8491 12.1678 54.8895 13.7337 55.5963 15.456C56.303 17.1783 56.6623 19.0232 56.6535 20.8847Z" fill="url(#paint1_radial_403_921)"/>
<g opacity="0.30288" filter="url(#filter1_f_403_921)">
<path d="M41.0316 30.1439C38.3773 31.4267 35.3424 31.8413 32.5943 31.2968C29.8463 30.7522 27.6104 29.2929 26.3783 27.24C25.1463 25.1871 25.0192 22.7087 26.0248 20.35C27.0305 17.9913 29.0867 15.9456 31.7409 14.6628C34.3952 13.3801 37.4302 12.9654 40.1782 13.5099C42.9262 14.0545 45.1622 15.5138 46.3942 17.5667C47.6262 19.6196 47.7534 22.098 46.7477 24.4567C45.742 26.8154 43.6859 28.8611 41.0316 30.1439Z" fill="url(#paint2_radial_403_921)"/>
</g>
<g filter="url(#filter2_f_403_921)">
<path d="M53.0672 18.0081C53.0726 19.1566 52.8509 20.2948 52.4149 21.3573C51.9788 22.4199 51.337 23.386 50.5263 24.1999C49.7155 25.0139 48.7518 25.6599 47.6905 26.1006C46.6293 26.5414 45.4913 26.7682 44.342 26.7682C43.1927 26.7682 42.0547 26.5414 40.9934 26.1006C39.9321 25.6599 38.9685 25.0139 38.1577 24.1999C37.347 23.386 36.7051 22.4199 36.2691 21.3573C35.8331 20.2948 35.6114 19.1566 35.6168 18.0081C35.6114 16.8597 35.8331 15.7215 36.2691 14.6589C36.7051 13.5964 37.347 12.6303 38.1577 11.8163C38.9685 11.0023 39.9321 10.3564 40.9934 9.91568C42.0547 9.47494 43.1927 9.24805 44.342 9.24805C45.4913 9.24805 46.6293 9.47494 47.6905 9.91568C48.7518 10.3564 49.7155 11.0023 50.5263 11.8163C51.337 12.6303 51.9788 13.5964 52.4149 14.6589C52.8509 15.7215 53.0726 16.8597 53.0672 18.0081Z" fill="url(#paint3_radial_403_921)"/>
</g>
<path opacity="0.74038" fill-rule="evenodd" clip-rule="evenodd" d="M34.7859 29.9463C31.7751 27.5431 30.9646 26.1816 31.4229 23.418C32.7285 26.9981 34.6534 29.7419 34.7859 29.9463Z" fill="url(#paint4_radial_403_921)"/>
<path d="M60.9925 10.9874C60.9987 12.3333 60.7471 13.6477 60.2521 14.8551C59.7571 16.0626 59.0285 17.1393 58.1081 18.0235C57.1877 18.9076 56.0938 19.5818 54.889 20.0072C53.6842 20.4327 52.3924 20.601 51.0877 20.5026C49.783 20.4041 48.4911 20.0409 47.2863 19.4336C46.0816 18.8264 44.9876 17.9872 44.0672 16.9642C43.1469 15.9411 42.4182 14.7545 41.9232 13.4723C41.4282 12.1902 41.1766 10.8378 41.1828 9.49288C41.1766 8.14704 41.4282 6.83264 41.9232 5.62518C42.4182 4.41772 43.1469 3.34099 44.0672 2.45684C44.9876 1.57269 46.0816 0.898532 47.2863 0.473095C48.4911 0.0476581 49.783 -0.120678 51.0877 -0.0222452C52.3924 0.0761875 53.6842 0.43945 54.889 1.04668C56.0938 1.6539 57.1877 2.49313 58.1081 3.51616C59.0285 4.53918 59.7571 5.72585 60.2521 7.008C60.7471 8.29015 60.9987 9.64252 60.9925 10.9874Z" fill="url(#paint5_radial_403_921)"/>
<path fill-rule="evenodd" clip-rule="evenodd" d="M53.3767 1.25195C58.1727 4.44143 59.548 6.25463 59.1866 9.95082C56.8077 5.17648 53.5992 1.52402 53.3767 1.25195Z" fill="url(#paint6_radial_403_921)"/>
</g>
<defs>
<filter id="filter0_f_403_921" x="-7.53005" y="5.7576" width="71.5354" height="54.434" filterUnits="userSpaceOnUse" color-interpolation-filters="sRGB">
<feFlood flood-opacity="0" result="BackgroundImageFix"/>
<feBlend mode="normal" in="SourceGraphic" in2="BackgroundImageFix" result="shape"/>
<feGaussianBlur stdDeviation="6.37511" result="effect1_foregroundBlur_403_921"/>
</filter>
<filter id="filter1_f_403_921" x="18.5457" y="6.46829" width="35.6812" height="31.8701" filterUnits="userSpaceOnUse" color-interpolation-filters="sRGB">
<feFlood flood-opacity="0" result="BackgroundImageFix"/>
<feBlend mode="normal" in="SourceGraphic" in2="BackgroundImageFix" result="shape"/>
<feGaussianBlur stdDeviation="3.40355" result="effect1_foregroundBlur_403_921"/>
</filter>
<filter id="filter2_f_403_921" x="34.1915" y="7.8228" width="20.301" height="20.37" filterUnits="userSpaceOnUse" color-interpolation-filters="sRGB">
<feFlood flood-opacity="0" result="BackgroundImageFix"/>
<feBlend mode="normal" in="SourceGraphic" in2="BackgroundImageFix" result="shape"/>
<feGaussianBlur stdDeviation="0.712626" result="effect1_foregroundBlur_403_921"/>
</filter>
<radialGradient id="paint0_radial_403_921" cx="0" cy="0" r="1" gradientUnits="userSpaceOnUse" gradientTransform="translate(35.2316 29.6692) rotate(83.5442) scale(20.1509 30.9865)">
<stop stop-opacity="0.99107"/>
<stop offset="0.51389" stop-opacity="0.61607"/>
<stop offset="1" stop-color="#8D8D8D" stop-opacity="0"/>
</radialGradient>
<radialGradient id="paint1_radial_403_921" cx="0" cy="0" r="1" gradientUnits="userSpaceOnUse" gradientTransform="translate(47.5057 20.8847) scale(14.1428 14.1322)">
<stop stop-color="#F60000"/>
<stop offset="1" stop-color="#B30000"/>
</radialGradient>
<radialGradient id="paint2_radial_403_921" cx="0" cy="0" r="1" gradientUnits="userSpaceOnUse" gradientTransform="translate(39.4154 20.695) rotate(68.2887) scale(15.0233 14.5858)">
<stop stop-opacity="0.99107"/>
<stop offset="0.51389" stop-opacity="0.61607"/>
<stop offset="1" stop-color="#8D8D8D" stop-opacity="0"/>
</radialGradient>
<radialGradient id="paint3_radial_403_921" cx="0" cy="0" r="1" gradientUnits="userSpaceOnUse" gradientTransform="translate(44.3425 18.0081) scale(8.72526 8.71881)">
<stop stop-color="#7F0000" stop-opacity="0.58407"/>
<stop offset="0.66667" stop-color="#840000" stop-opacity="0.49804"/>
<stop offset="1" stop-opacity="0"/>
</radialGradient>
<radialGradient id="paint4_radial_403_921" cx="0" cy="0" r="1" gradientUnits="userSpaceOnUse" gradientTransform="translate(31.7666 26.8219) rotate(147.07) scale(1.68851 6.75964)">
<stop stop-color="white"/>
<stop offset="1" stop-color="white" stop-opacity="0"/>
</radialGradient>
<radialGradient id="paint5_radial_403_921" cx="0" cy="0" r="1" gradientUnits="userSpaceOnUse" gradientTransform="translate(52.0303 8.84698) rotate(45.1553) scale(10.5943 10.2218)">
<stop stop-color="#D43500"/>
<stop offset="0.48052" stop-color="#D42400"/>
<stop offset="0.73611" stop-color="#D40000"/>
<stop offset="1" stop-color="#950000"/>
</radialGradient>
<radialGradient id="paint6_radial_403_921" cx="0" cy="0" r="1" gradientUnits="userSpaceOnUse" gradientTransform="translate(58.2763 5.43727) rotate(-31.5289) scale(2.36504 9.66929)">
<stop stop-color="white"/>
<stop offset="1" stop-color="white" stop-opacity="0"/>
</radialGradient>
<clipPath id="clip0_403_921">
<rect width="61" height="57" fill="white"/>
</clipPath>
</defs>
</svg>
